<?xml version="1.0" encoding="utf-8"?>
<!-- Generator: Adobe Illustrator 18.0.0, SVG Export Plug-In . SVG Version: 6.00 Build 0)  -->
<svg version="1.2" baseProfile="tiny" id="Layer_1" xmlns="http://www.w3.org/2000/svg" xmlns:xlink="http://www.w3.org/1999/xlink"
	 x="0px" y="0px" viewBox="0 0 30 20" xml:space="preserve">
<path fill="#FFFFFF" d="M15,0C9.5,0,5,4.5,5,10s4.5,10,10,10s10-4.5,10-10S20.5,0,15,0z M16.3,2.2c0.8,0,1.4,0.6,1.3,1.4
	c-0.1,0.9-0.8,1.6-1.6,1.5c-0.8-0.1-1.4-0.6-1.3-1.3C14.7,2.8,15.4,2.2,16.3,2.2z M17.3,17.1c-1,0.4-2,0.6-3,0.7
	c-1,0.1-1.7-0.5-1.6-1.5c0.1-1,0.3-2,0.5-2.9c0.2-1.3,0.5-2.7,0.8-4c0.1-0.3,0-0.4-0.3-0.5c-0.4,0-0.8-0.1-1.2-0.2
	c-0.1,0-0.2-0.2-0.2-0.2c0-0.2,0.1-0.4,0.2-0.5c1.3-0.3,2.6-0.5,4-0.8c0.1,0,0.2,0,0.3,0c-0.1,0.7-0.2,1.3-0.3,1.9
	c-0.4,1.9-0.7,3.9-1.1,5.8c-0.1,0.3,0,0.6,0.1,0.9c0.2,0.5,0.7,0.7,1.5,0.6c0.3-0.1,0.5-0.1,0.8-0.2C17.8,16.8,17.8,16.9,17.3,17.1z
	"/>
</svg>
